<mxfile host="app.diagrams.net" modified="2023-07-27T15:36:28.577Z" agent="Mozilla/5.0 (Windows NT 10.0; Win64; x64) AppleWebKit/537.36 (KHTML, like Gecko) Chrome/115.0.0.0 Safari/537.36 Edg/115.0.1901.183" version="21.6.5" etag="u_0UGoIW4_Nxx05gpRwX" type="github">
  <diagram name="第 1 页" id="9P5A_w-HLZCVhxPTsvNC">
    <mxGraphModel>
      <root>
        <mxCell id="0" />
        <mxCell id="1" parent="0" />
      </root>
    </mxGraphModel>
  </diagram>
</mxfile>
